<?xml version="1.0"?>
<svg xmlns="http://www.w3.org/2000/svg" height="512px" viewBox="0 0 368 368" width="512px" class=""><g><path d="m316.921875 66.34375c-3.128906-3.128906-8.1875-3.128906-11.3125 0l-31.992187 32s0 0-.007813 0 0 0 0 .007812l-1.609375 1.601563v-59.953125c0-4.414062-3.574219-8-8-8h-56v-24c0-4.414062-3.574219-8-8-8h-128c-4.425781 0-8 3.585938-8 8v24h-56c-4.425781 0-8 3.585938-8 8v320c0 4.414062 3.574219 8 8 8h256c4.425781 0 8-3.585938 8-8v-139.960938l61.648438-61.648437s.007812 0 .007812-.007813c0-.007812 0-.007812.007812-.007812l31.992188-32c1.503906-1.496094 2.34375-3.527344 2.34375-5.648438 0-2.117187-.839844-4.160156-2.34375-5.65625zm-58.570313 144.71875c-.007812.007812-.007812.007812-.015624.015625l-76.910157 76.921875h-37.425781v-37.414062l124.921875-124.929688.71875-.71875c.007813-.007812.015625-.015625.023437-.027344l9.601563-9.597656 37.414063 37.414062zm-178.351562-195.0625h112v48h-112zm-16 32v24c0 4.414062 3.574219 8 8 8h128c4.425781 0 8-3.585938 8-8v-24h48v64h-240v-64zm192 304h-240v-224h227.960938l-113.617188 113.617188c-1.503906 1.503906-2.34375 3.535156-2.34375 5.65625v48.726562c0 4.414062 3.574219 8 8 8h48.734375c2.128906 0 4.160156-.839844 5.65625-2.34375l65.609375-65.617188zm72-210.585938-37.425781-37.414062 20.691406-20.6875 37.421875 37.414062zm0 0" data-original="#000000" class="active-path" data-old_color="#F6E9E9" fill="#FFFFFF"/></g> </svg>
