<?xml version="1.0"?>
<svg xmlns="http://www.w3.org/2000/svg" xmlns:xlink="http://www.w3.org/1999/xlink" version="1.1" id="Capa_1" x="0px" y="0px" viewBox="0 0 480.108 480.108" style="enable-background:new 0 0 480.108 480.108;" xml:space="preserve" width="512px" height="512px"><g><g>
	<g>
		<path d="M394.435,256.362c-0.771-0.24-1.574-0.362-2.381-0.362h-192c-2.526,0.001-4.903,1.194-6.414,3.219    c-1.51,2.025-1.974,4.646-1.25,7.066l33.391,112c1.009,3.391,4.126,5.716,7.664,5.715h123.703    c3.502-0.002,6.596-2.279,7.641-5.621l34.906-112C401.009,262.16,398.654,257.675,394.435,256.362z M351.265,368H239.406    l-28.618-96h170.391L351.265,368z" data-original="#000000" class="active-path" data-old_color="#FFFFF3" fill="#FFFFFF"/>
	</g>
</g><g>
	<g>
		<path d="M440.054,248c-3.352,0-6.349,2.089-7.508,5.234L378.476,400H216.054v16h40v17.474    c-12.497,4.418-19.046,18.131-14.627,30.627c4.418,12.497,18.131,19.046,30.627,14.627c12.497-4.418,19.046-18.131,14.627-30.627    c-2.416-6.835-7.793-12.211-14.627-14.627V416h72v17.474c-12.497,4.418-19.046,18.131-14.627,30.627s18.131,19.046,30.627,14.627    c12.497-4.418,19.046-18.131,14.627-30.627c-2.416-6.835-7.793-12.211-14.627-14.627V416h24c3.352,0,6.349-2.089,7.508-5.234    L445.632,264h34.422v-16H440.054z M264.054,464c-4.418,0-8-3.582-8-8s3.582-8,8-8s8,3.582,8,8    C272.05,460.416,268.471,463.995,264.054,464z M352.054,464c-4.418,0-8-3.582-8-8s3.582-8,8-8s8,3.582,8,8    C360.05,460.416,356.471,463.995,352.054,464z" data-original="#000000" class="active-path" data-old_color="#FFFFF3" fill="#FFFFFF"/>
	</g>
</g><g>
	<g>
		<rect x="248.054" y="296" width="96" height="16" data-original="#000000" class="active-path" data-old_color="#FFFFF3" fill="#FFFFFF"/>
	</g>
</g><g>
	<g>
		<rect x="256.054" y="328" width="80" height="16" data-original="#000000" class="active-path" data-old_color="#FFFFF3" fill="#FFFFFF"/>
	</g>
</g><g>
	<g>
		<path d="M237.71,146.344l-144-144c-3.122-3.124-8.186-3.125-11.309-0.003c-0.001,0.001-0.002,0.002-0.003,0.003l-80,80    c-3.124,3.122-3.125,8.186-0.003,11.309c0.001,0.001,0.002,0.002,0.003,0.003l144,144c1.5,1.501,3.534,2.344,5.656,2.344h80    c4.417,0.001,7.999-3.579,8-7.996c0-0.001,0-0.003,0-0.004v-80C240.054,149.878,239.21,147.844,237.71,146.344z M224.054,224    h-68.688l-136-136l68.688-68.688l136,136V224z" data-original="#000000" class="active-path" data-old_color="#FFFFF3" fill="#FFFFFF"/>
	</g>
</g><g>
	<g>
		<path d="M409.718,70.461c-8.58-8.649-22.546-8.705-31.195-0.125c-0.042,0.041-0.083,0.083-0.125,0.125    c-11.016,11.012-5.016,22.441-1.43,29.27c3.953,7.535,3.594,8.332,1.43,10.492c-2.366,2.367-6.202,2.367-8.568,0.002    c-2.367-2.366-2.367-6.202-0.002-8.568l-11.313-11.312c-8.58,8.648-8.525,22.615,0.124,31.195c8.6,8.532,22.471,8.532,31.071,0    c10.992-10.996,5-22.418,1.422-29.242c-3.961-7.547-3.594-8.348-1.422-10.52c2.366-2.367,6.202-2.367,8.568-0.002    s2.367,6.202,0.002,8.568l11.313,11.312C418.242,93.076,418.298,79.109,409.718,70.461z" data-original="#000000" class="active-path" data-old_color="#FFFFF3" fill="#FFFFFF"/>
	</g>
</g><g>
	<g>
		<path d="M98.968,386.344l11.313,11.312c7.73-7.668,7.779-20.151,0.111-27.881s-20.151-7.779-27.881-0.111    c-0.038,0.037-0.075,0.075-0.113,0.113c-6.804,7.118-7.411,18.131-1.43,25.953c2.961,5.648,2.727,5.883,1.43,7.18    c-1.447,1.456-3.8,1.464-5.256,0.017c-1.456-1.447-1.464-3.8-0.017-5.256c0.005-0.005,0.01-0.01,0.015-0.015l-11.313-11.312    c-7.701,7.687-7.712,20.161-0.025,27.862c3.7,3.707,8.725,5.788,13.963,5.783v0c5.23,0.012,10.249-2.062,13.945-5.762    c6.795-7.114,7.398-18.116,1.422-25.93c-2.969-5.66-2.734-5.898-1.422-7.207c1.447-1.456,3.8-1.464,5.256-0.017    c1.456,1.447,1.464,3.8,0.017,5.256C98.978,386.334,98.973,386.339,98.968,386.344z" data-original="#000000" class="active-path" data-old_color="#FFFFF3" fill="#FFFFFF"/>
	</g>
</g><g>
	<g>
		<path d="M477.713,58.346c-0.001-0.001-0.002-0.002-0.003-0.003l-56-56c-3.122-3.124-8.186-3.125-11.309-0.002    c-0.001,0.001-0.002,0.002-0.003,0.003l-104,104c-1.5,1.5-2.343,3.534-2.344,5.656v56c-0.001,4.417,3.579,7.999,7.996,8    c0.001,0,0.003,0,0.004,0h56c2.122,0,4.156-0.843,5.656-2.344l104-104C480.834,66.534,480.835,61.47,477.713,58.346z M364.742,160    h-44.688v-44.688l96-96L460.742,64L364.742,160z" data-original="#000000" class="active-path" data-old_color="#FFFFF3" fill="#FFFFFF"/>
	</g>
</g><g>
	<g>
		<path d="M152.058,320c-0.001,0-0.003,0-0.004,0h-56c-2.122,0-4.156,0.843-5.656,2.344l-88,88    c-3.124,3.122-3.125,8.186-0.003,11.309c0.001,0.001,0.002,0.002,0.003,0.003l56,56c3.122,3.124,8.186,3.125,11.31,0.003    c0.001-0.001,0.002-0.002,0.003-0.003l88-88c1.5-1.5,2.343-3.535,2.344-5.656v-56C160.055,323.583,156.475,320.001,152.058,320z     M144.054,380.687l-80,80L19.367,416l80-80h44.688V380.687z" data-original="#000000" class="active-path" data-old_color="#FFFFF3" fill="#FFFFFF"/>
	</g>
</g><g>
	<g>
		<path d="M188.054,176c-6.627,0-12,5.373-12,12c0.007,6.624,5.376,11.993,12,12c6.627,0,12-5.373,12-12    C200.054,181.372,194.682,176,188.054,176z" data-original="#000000" class="active-path" data-old_color="#FFFFF3" fill="#FFFFFF"/>
	</g>
</g><g>
	<g>
		<path d="M161.602,150.236c5.411-10.312,3.51-22.942-4.697-31.205c-13.273-13.281-26.867-6.148-35.867-1.422    c-9.719,5.098-12.664,5.898-17.148,1.422c-4.197-4.196-4.198-11-0.002-15.198c4.196-4.197,11-4.198,15.198-0.002l11.313-11.312    c-8.263-8.208-20.895-10.108-31.208-4.696l-13.48-13.48L74.398,85.656L87.88,99.138c-5.41,10.313-3.509,22.943,4.698,31.206    c13.289,13.301,26.898,6.156,35.898,1.434c9.688-5.102,12.633-5.902,17.117-1.434c4.196,4.196,4.196,10.999,0,15.195    c-4.196,4.196-10.999,4.196-15.195,0l-11.313,11.313c8.216,8.298,20.91,10.208,31.204,4.696l12.108,12.108l11.312-11.312    L161.602,150.236z" data-original="#000000" class="active-path" data-old_color="#FFFFF3" fill="#FFFFFF"/>
	</g>
</g><g>
	<g>
		<rect x="296.054" y="192" width="16" height="16" data-original="#000000" class="active-path" data-old_color="#FFFFF3" fill="#FFFFFF"/>
	</g>
</g><g>
	<g>
		<rect x="296.054" y="224" width="16" height="16" data-original="#000000" class="active-path" data-old_color="#FFFFF3" fill="#FFFFFF"/>
	</g>
</g><g>
	<g>
		<rect x="160.054" y="256" width="16" height="16" data-original="#000000" class="active-path" data-old_color="#FFFFF3" fill="#FFFFFF"/>
	</g>
</g><g>
	<g>
		<rect x="160.054" y="288" width="16" height="16" data-original="#000000" class="active-path" data-old_color="#FFFFF3" fill="#FFFFFF"/>
	</g>
</g></g> </svg>
